<svg xmlns="http://www.w3.org/2000/svg" viewBox="0 0 512 512" width="512" height="512">
  <rect width="512" height="512" rx="128" fill="#15161b"/>
  <circle cx="256" cy="256" r="200" fill="none" stroke="#3987e5" stroke-width="24" stroke-dasharray="1000 250"/>
  <circle cx="256" cy="256" r="200" fill="none" stroke="rgba(255,255,255,0.08)" stroke-width="24"/>
  <g transform="translate(156, 156) scale(8.33)" fill="none" stroke="#3987e5" stroke-width="2" stroke-linecap="round" stroke-linejoin="round">
    <path d="M12 22V9M12 9c-3-2-5-1-6 2 2-3 5-3 6-2zm0 0c3-2 5-1 6 2-2-3-5-3-6-2zm0 4c-2-1-4-1-5 1 2-3 4-2 5-1zm0 0c2-1 4-1 5 1-2-3-4-2-5-1z"/>
    <circle cx="12" cy="7" r="3" fill="#3987e5"/>
  </g>
</svg>
